<svg height="32" viewBox="0 0 64 64" width="32" xmlns="http://www.w3.org/2000/svg"><g id="Fill_Outline" data-name="Fill Outline"><g id="Color"><g><rect fill="#d0d8da" height="58" rx="4" width="46" x="3" y="3"/><path d="m42 53a30 30 0 0 1 -30-30v-20h-5a4 4 0 0 0 -4 4v50a4 4 0 0 0 4 4h38a4 4 0 0 0 4-4v-4z" fill="#93999a"/><path d="m8 8h36v18h-36z" fill="#aae1f9"/><path d="m8 8v2h30a4 4 0 0 1 4 4v12h2v-18z" fill="#57b7eb"/><path d="m26 22a13 13 0 0 1 -13-13v-1h-5v18h36v-4z" fill="#57b7eb"/><path d="m12 23v-15h-4v18h4.15c-.098-.987-.15-1.987-.15-3z" fill="#4891d3"/><g><path d="m8 30h6v6h-6z" fill="#aae1f9"/><path d="m8 36h6v-2.229a29.6 29.6 0 0 1 -1.17-3.771h-4.83z" fill="#57b7eb"/><path d="m19 30h6v6h-6z" fill="#aae1f9"/><path d="m8 40h6v6h-6z" fill="#57b7eb"/><path d="m19 40h6v6h-6z" fill="#aae1f9"/><g fill="#57b7eb"><path d="m8 51h6v6h-6z"/><path d="m19 51h6v6h-6z"/><path d="m24 35a4 4 0 0 1 -4-4v-1h-1v6h6v-1z"/></g><path d="m13 35a4 4 0 0 1 -4-4v-1h-1v6h6v-1z" fill="#4891d3"/><path d="m13 45a4 4 0 0 1 -4-4v-1h-1v6h6v-1z" fill="#4891d3"/><path d="m24 45a4 4 0 0 1 -4-4v-1h-1v6h6v-1z" fill="#57b7eb"/><path d="m13 56a4 4 0 0 1 -4-4v-1h-1v6h6v-1z" fill="#4891d3"/><path d="m24 56a4 4 0 0 1 -4-4v-1h-1v6h6v-1z" fill="#4891d3"/><path d="m22.745 46a30.11 30.11 0 0 1 -3.745-3.745v3.745z" fill="#4891d3"/></g><g><path d="m60.361 40.893a10.507 10.507 0 0 0 -10.507-11.893 8.562 8.562 0 0 0 -5.17 1.737l-.031.024a2.739 2.739 0 0 1 -3.306 0l-.031-.024a8.562 8.562 0 0 0 -5.17-1.737 10.507 10.507 0 0 0 -10.507 11.893 12.828 12.828 0 0 0 1.207 3.8l6.867 13.734a4.578 4.578 0 0 0 2.287 2.217 4.486 4.486 0 0 0 5.342-1.433l1.658-2.211 1.545 2.06a4.728 4.728 0 0 0 2.59 1.8 4.478 4.478 0 0 0 5.1-2.337l6.918-13.835a12.828 12.828 0 0 0 1.208-3.795z" fill="#f89c8d"/><path d="m47 22h6a0 0 0 0 1 0 0 6 6 0 0 1 -6 6h-4a0 0 0 0 1 0 0v-2a4 4 0 0 1 4-4z" fill="#c4f236"/><path d="m34 34a23.1 23.1 0 0 1 .519-4.861 10.457 10.457 0 0 0 -8.88 11.754 12.828 12.828 0 0 0 1.207 3.8l6.867 13.734a4.578 4.578 0 0 0 2.287 2.217 4.486 4.486 0 0 0 5.342-1.433l1.658-2.211 1.545 2.06a4.728 4.728 0 0 0 2.59 1.8 4.478 4.478 0 0 0 5.1-2.337l.926-1.853a23 23 0 0 1 -19.161-22.67z" fill="#f8664f"/><path d="m48 25h-2a2 2 0 0 1 -1.966-1.662 3.969 3.969 0 0 0 -1.034 2.662v2h4a6 6 0 0 0 5.983-5.658 5.994 5.994 0 0 1 -4.983 2.658z" fill="#a1d51c"/></g></g></g><g id="Outlines_copy" data-name="Outlines copy"><g fill="#323232"><path d="m58.742 32.084a11.7 11.7 0 0 0 -8.215-4.047 7 7 0 0 0 3.473-6.037 1 1 0 0 0 -1-1h-6a5.006 5.006 0 0 0 -5 5v3.982c-.026-.017-.055-.024-.08-.043a9.623 9.623 0 0 0 -5.774-1.939 11.71 11.71 0 0 0 -8.888 4.084 11.169 11.169 0 0 0 -2.607 8.959 13.807 13.807 0 0 0 1.3 4.1l6.867 13.734a5.565 5.565 0 0 0 2.8 2.694 5.505 5.505 0 0 0 6.525-1.757l.857-1.147.745.993a5.732 5.732 0 0 0 3.15 2.175 5.59 5.59 0 0 0 1.349.165 5.446 5.446 0 0 0 4.887-3.026l6.917-13.834a1 1 0 1 0 -1.789-.894l-6.917 13.835a3.472 3.472 0 0 1 -3.966 1.813 3.739 3.739 0 0 1 -2.032-1.435l-1.544-2.059a1 1 0 0 0 -1.6 0l-1.658 2.211a3.507 3.507 0 0 1 -4.159 1.11 3.571 3.571 0 0 1 -1.775-1.742l-6.867-13.733a11.777 11.777 0 0 1 -1.113-3.5 9.05 9.05 0 0 1 2.146-7.354 9.714 9.714 0 0 1 7.372-3.392 7.637 7.637 0 0 1 4.6 1.558 3.762 3.762 0 0 0 4.544-.024 7.607 7.607 0 0 1 4.564-1.534 9.714 9.714 0 0 1 7.372 3.388 9.05 9.05 0 0 1 2.146 7.354 1 1 0 0 0 1.977.3 11.169 11.169 0 0 0 -2.607-8.958zm-14.742-6.084a3 3 0 0 1 3-3h4.9a5.008 5.008 0 0 1 -4.9 4h-3zm.048 3.964c-.015.011-.033.014-.048.025v-.989h1.623a9.745 9.745 0 0 0 -1.575.964z"/><path d="m56.255 41.279a.983.983 0 0 0 .152.012 1 1 0 0 0 .988-.85 7.081 7.081 0 0 0 -1.687-5.75 7.713 7.713 0 0 0 -5.854-2.691 1 1 0 0 0 0 2 5.716 5.716 0 0 1 4.338 1.995 5.107 5.107 0 0 1 1.225 4.145 1 1 0 0 0 .838 1.139z"/><circle cx="37" cy="55" r="1"/><circle cx="35" cy="52" r="1"/><path d="m31 60h-24a3 3 0 0 1 -3-3v-50a3 3 0 0 1 3-3h38a3 3 0 0 1 3 3v11a1 1 0 0 0 2 0v-11a5.006 5.006 0 0 0 -5-5h-38a5.006 5.006 0 0 0 -5 5v50a5.006 5.006 0 0 0 5 5h24a1 1 0 0 0 0-2z"/><path d="m44 19.379a1 1 0 0 0 1-1v-10.379a1 1 0 0 0 -1-1h-36a1 1 0 0 0 -1 1v18a1 1 0 0 0 1 1h31a1 1 0 0 0 0-2h-30v-16h34v9.379a1 1 0 0 0 1 1z"/><path d="m15 30a1 1 0 0 0 -1-1h-6a1 1 0 0 0 -1 1v6a1 1 0 0 0 1 1h6a1 1 0 0 0 1-1zm-2 5h-4v-4h4z"/><path d="m26 31v-1a1 1 0 0 0 -1-1h-6a1 1 0 0 0 -1 1v6a1 1 0 0 0 1 1h3a1 1 0 0 0 0-2h-2v-4h4a1 1 0 0 0 2 0z"/><path d="m15 40a1 1 0 0 0 -1-1h-6a1 1 0 0 0 -1 1v6a1 1 0 0 0 1 1h6a1 1 0 0 0 1-1zm-2 5h-4v-4h4z"/><path d="m22 41a1 1 0 0 0 0-2h-3a1 1 0 0 0 -1 1v6a1 1 0 0 0 1 1h4a1 1 0 0 0 0-2h-3v-4z"/><path d="m14 50h-6a1 1 0 0 0 -1 1v6a1 1 0 0 0 1 1h6a1 1 0 0 0 1-1v-6a1 1 0 0 0 -1-1zm-1 6h-4v-4h4z"/><path d="m18 57a1 1 0 0 0 1 1h6a1 1 0 0 0 1-1v-6a1 1 0 0 0 -1-1h-6a1 1 0 0 0 -1 1zm2-5h4v4h-4z"/><path d="m18.707 14.293a1 1 0 0 0 -1.414 0l-2.293 2.293v-3.586a1 1 0 0 0 -2 0v8a1 1 0 0 0 2 0v-1.586l2.293 2.293a1 1 0 0 0 1.414-1.414l-2.293-2.293 2.293-2.293a1 1 0 0 0 0-1.414z"/><path d="m25 16a1 1 0 0 0 2 0 2 2 0 0 0 -2-2h-2a2 2 0 0 0 -2 2v4a2 2 0 0 0 2 2h2a2 2 0 0 0 2-2 1 1 0 0 0 -2 0h-2v-4z"/><path d="m30 17a2 2 0 0 0 -2 2v1a2 2 0 0 0 2 2h1a2.981 2.981 0 0 0 2-.78 2.981 2.981 0 0 0 2 .78 1 1 0 0 0 0-2 1 1 0 0 1 -1-1v-3a2 2 0 0 0 -2-2h-3a1 1 0 0 0 0 2h3v1zm1 3h-1v-1h2a1 1 0 0 1 -1 1z"/><path d="m38 13v8a1 1 0 0 0 2 0v-8a1 1 0 0 0 -2 0z"/></g></g></g></svg>